<?xml version="1.0" encoding="UTF-8" standalone="no"?>
<!-- Generator: Adobe Illustrator 26.2.1, SVG Export Plug-In . SVG Version: 6.00 Build 0)  -->

<svg
   version="1.1"
   id="Layer_1"
   x="0px"
   y="0px"
   viewBox="0 0 256 256"
   xml:space="preserve"
   sodipodi:docname="WorkOS-Darksvg"
   width="256"
   height="256"
   inkscape:version="1.4.3 (0d15f75042, 2025-12-25)"
   xmlns:inkscape="http://www.inkscape.org/namespaces/inkscape"
   xmlns:sodipodi="http://sodipodi.sourceforge.net/DTD/sodipodi-0.dtd"
   xmlns="http://www.w3.org/2000/svg"
   xmlns:svg="http://www.w3.org/2000/svg"><defs
   id="defs2" /><sodipodi:namedview
   id="namedview2"
   pagecolor="#505050"
   bordercolor="#ffffff"
   borderopacity="1"
   inkscape:showpageshadow="0"
   inkscape:pageopacity="0"
   inkscape:pagecheckerboard="1"
   inkscape:deskcolor="#505050"
   inkscape:zoom="1.0670927"
   inkscape:cx="144.78593"
   inkscape:cy="298.94311"
   inkscape:window-width="2007"
   inkscape:window-height="1383"
   inkscape:window-x="0"
   inkscape:window-y="0"
   inkscape:window-maximized="1"
   inkscape:current-layer="Layer_1" />
<style
   type="text/css"
   id="style1">
	.st0{fill:#6363F1;}
</style>

<rect
   width="256"
   height="256"
   fill="#242938"
   rx="60"
   id="rect1"
   x="0"
   y="0" /><g
   id="g2"
   transform="matrix(1.0666667,0,0,1,-39.466668,-16)"><path
     class="st0"
     d="m 37,144 c 0,4.6 1.2,9.1 3.5,13 l 42.1,72.9 c 4.3,7.4 10.9,13.5 19,16.2 16.1,5.4 32.7,-1.5 40.6,-15.3 L 152.4,213.2 112.4,144 154.7,70.6 164.8,53 c 3,-5.3 7.1,-9.6 11.9,-13 h -4.4 -60.9 c -11.4,0 -22,6.1 -27.7,16 l -43.3,75 c -2.2,3.9 -3.4,8.4 -3.4,13 z"
     id="path1" /><path
     class="st0"
     d="m 277,144 c 0,-4.6 -1.2,-9.1 -3.5,-13 L 230.9,57.2 C 223,43.5 206.3,36.6 190.3,41.9 c -8.2,2.7 -14.7,8.8 -19,16.2 l -9.6,16.6 40.1,69.4 -42.3,73.4 -10.3,17.5 c -3,5.2 -7.1,9.6 -11.9,13 h 4.4 60.9 c 11.4,0 22,-6.1 27.7,-16 l 43.3,-75 c 2.2,-3.9 3.4,-8.4 3.4,-13 z"
     id="path2" /></g>
</svg>
